<svg version="1.1" id="Layer_1" xmlns="http://www.w3.org/2000/svg" xmlns:xlink="http://www.w3.org/1999/xlink" x="0px" y="0px"
	 width="100%" viewBox="0 0 968 966" enable-background="new 0 0 968 966" xml:space="preserve"style="enable-background:new 0 0 391.74 387.04">
<path fill="#5E18EB" opacity="1.000000" stroke="none" 
	d="
M467.000000,967.000000 
	C311.333344,967.000000 156.166672,967.000000 1.000000,967.000000 
	C1.000000,645.000000 1.000000,323.000000 1.000000,1.000000 
	C323.666656,1.000000 646.333313,1.000000 969.000000,1.000000 
	C969.000000,323.000000 969.000000,645.000000 969.000000,967.000000 
	C801.833313,967.000000 634.666687,967.000000 467.000000,967.000000 
M628.016052,440.555481 
	C642.505981,481.681580 638.336426,520.828125 613.542847,556.709717 
	C588.695312,592.669434 553.259338,610.362732 509.911407,612.043945 
	C509.911407,655.173767 509.911407,697.880737 509.911407,740.581482 
	C627.884155,741.319763 740.119934,655.778259 761.713013,526.981567 
	C782.830200,401.023438 708.018250,279.610443 586.466736,241.203568 
	C525.272949,221.868042 464.540314,225.081863 406.088074,251.391449 
	C331.977478,284.748901 284.765930,342.135437 261.727570,419.999023 
	C252.842880,419.999023 244.018387,419.869568 235.200027,420.046600 
	C229.727219,420.156403 224.154358,420.176971 218.822296,421.229736 
	C211.247101,422.725372 207.984573,429.257507 210.826736,436.490662 
	C212.086441,439.696564 213.889984,442.795074 215.956070,445.561920 
	C246.552399,486.534485 277.160889,527.498657 308.016235,568.275879 
	C310.913818,572.105286 315.053802,575.619202 319.384338,577.612488 
	C329.052094,582.062317 338.150543,578.306641 346.314301,567.423218 
	C376.798920,526.783142 407.245239,486.114197 437.635529,445.403534 
	C439.604095,442.766479 441.436615,439.851074 442.541412,436.780548 
	C445.385620,428.875641 442.053528,422.899719 433.846619,421.042816 
	C430.475189,420.279968 426.925659,420.112152 423.449768,420.042847 
	C416.196014,419.898163 408.937347,419.999054 401.403992,419.999054 
	C418.282837,388.570038 459.397522,357.452393 510.339996,358.266113 
	C563.194214,359.110382 609.118958,391.213989 628.016052,440.555481 
M441.594391,676.999817 
	C446.528137,677.669189 448.131775,675.327637 447.567535,670.676697 
	C447.297577,668.451660 447.521027,666.166809 447.521027,664.015137 
	C450.936127,664.015137 453.578033,664.140320 456.204529,663.992310 
	C465.101257,663.491150 471.363220,658.113403 473.021179,649.678101 
	C475.124207,638.978455 471.603882,629.752380 463.578400,626.104004 
	C455.785553,622.561462 447.737152,622.687134 439.814911,625.861511 
	C436.362854,627.244690 434.009491,629.599365 434.028748,633.734009 
	C434.085327,645.888062 434.053436,658.042480 434.053955,670.196777 
	C434.054169,674.661072 436.167206,677.037842 441.594391,676.999817 
M435.887085,689.098145 
	C434.059265,689.095886 432.087738,688.669800 430.449219,689.225586 
	C429.140991,689.669373 427.312683,691.295227 427.296143,692.419617 
	C427.088135,706.559326 427.146667,720.703308 427.185852,734.846069 
	C427.199127,739.644287 429.912354,741.758362 434.493042,741.636292 
	C436.456909,741.584045 438.411896,741.198486 440.199158,740.984924 
	C440.448212,740.325989 440.662415,740.021729 440.664185,739.716309 
	C440.708252,732.063232 440.883484,724.406128 440.684113,716.758911 
	C440.597687,713.444763 442.054047,712.293640 444.990784,712.111572 
	C449.110077,711.856262 451.303467,713.781006 451.385712,717.887390 
	C451.495636,723.375916 451.350800,728.871399 451.546143,734.355713 
	C451.749603,740.067871 453.624268,741.767822 459.271149,741.637451 
	C461.070740,741.595947 462.862030,741.196899 464.831085,740.938599 
	C464.831085,732.049622 465.185333,723.396423 464.725800,714.786621 
	C464.313049,707.052979 459.319702,702.506592 451.445679,701.855652 
	C448.047607,701.574707 444.606903,701.808594 441.108704,701.808594 
	C439.699188,697.712219 442.817657,691.864929 435.887085,689.098145 
M366.358582,664.099182 
	C379.674561,663.134705 386.607178,654.502625 385.141357,640.712036 
	C384.108337,630.993164 377.034485,624.462891 366.771332,623.753662 
	C355.645538,622.984741 347.413330,628.305481 344.999786,637.825317 
	C341.232971,652.682922 349.736877,663.627075 366.358582,664.099182 
M399.406830,662.328552 
	C408.111328,665.378723 416.589905,665.412781 423.676575,658.822083 
	C429.916626,653.018799 430.447235,645.290649 428.493164,637.516602 
	C426.242920,628.564209 418.556976,623.477905 408.467804,623.632385 
	C398.508545,623.784912 391.293121,628.995789 389.030273,637.670044 
	C386.337738,647.991394 389.830994,656.787659 399.406830,662.328552 
M348.556885,714.240234 
	C348.543152,718.984985 347.550201,723.982361 348.697205,728.427551 
	C352.298981,742.386353 367.814667,744.009216 378.644196,740.888855 
	C382.338196,739.824463 385.000488,737.548096 383.894501,733.221252 
	C382.617950,728.227051 379.257477,730.577637 376.378937,731.383728 
	C369.295990,733.367126 364.533234,732.120728 361.187714,727.124390 
	C367.370758,726.135071 373.380554,725.261292 379.355377,724.192200 
	C385.145233,723.156250 386.819855,720.420471 385.460205,714.661621 
	C383.722748,707.302612 377.846283,702.524414 369.633942,701.793030 
	C359.426666,700.884033 352.806854,704.609985 348.556885,714.240234 
M306.135223,703.707397 
	C310.020020,704.012939 313.904785,704.318542 317.992767,704.640137 
	C317.992767,714.627380 317.932953,724.258362 318.015259,733.888123 
	C318.064453,739.643127 319.776825,741.268738 325.530884,741.258972 
	C327.472839,741.255676 329.414368,740.962158 331.855530,740.759888 
	C331.855530,728.521301 331.855530,716.640503 331.855530,704.197449 
	C334.989166,704.197449 337.605164,704.237793 340.219482,704.188232 
	C344.449127,704.108154 345.425934,701.432068 345.295135,697.810669 
	C345.174774,694.478760 344.053711,692.785339 340.199310,692.906494 
	C331.235291,693.188110 322.256348,692.989685 313.283478,692.997986 
	C305.142487,693.005493 303.653168,694.953796 306.135223,703.707397 
M308.266846,623.611450 
	C308.268341,633.776184 308.224457,643.941223 308.293793,654.105469 
	C308.321198,658.120422 309.018860,662.473206 313.851135,662.809021 
	C321.808014,663.361816 329.835510,663.218079 337.817780,662.933777 
	C341.210876,662.812988 341.808136,659.742126 341.590332,656.937927 
	C341.379456,654.222595 340.890472,651.715271 336.948547,651.980652 
	C332.183990,652.301392 327.381378,652.056702 323.071136,652.056702 
	C322.497681,651.410828 322.290955,651.286987 322.290039,651.161499 
	C322.218231,641.502319 322.204132,631.842468 322.090607,622.183838 
	C322.019287,616.116333 320.237457,614.384888 314.306152,614.550110 
	C312.378174,614.603821 310.459290,614.982910 308.266846,615.245422 
	C308.266846,618.018616 308.266846,620.335999 308.266846,623.611450 
M403.849365,702.200012 
	C391.417419,706.274109 385.884033,716.717651 389.813232,728.691589 
	C393.199921,739.012390 406.024292,744.951965 416.789490,741.244812 
	C420.349579,740.018921 422.699005,737.968079 421.815796,733.900757 
	C420.932739,729.834106 418.162415,730.330811 414.927673,731.035828 
	C408.734955,732.385620 404.288177,730.025208 402.896271,725.181580 
	C400.440735,716.636719 406.562683,710.694275 415.701508,712.751831 
	C419.998352,713.719360 422.417694,711.835815 421.136353,707.931641 
	C420.471252,705.905151 418.319855,703.447815 416.386688,702.951965 
	C412.639893,701.990845 408.572754,702.278625 403.849365,702.200012 
z"/>
<path fill="#FFFEFF" opacity="1.000000" stroke="none" 
	d="
M627.897583,440.184875 
	C609.118958,391.213989 563.194214,359.110382 510.339996,358.266113 
	C459.397522,357.452393 418.282837,388.570038 401.403992,419.999054 
	C408.937347,419.999054 416.196014,419.898163 423.449768,420.042847 
	C426.925659,420.112152 430.475189,420.279968 433.846619,421.042816 
	C442.053528,422.899719 445.385620,428.875641 442.541412,436.780548 
	C441.436615,439.851074 439.604095,442.766479 437.635529,445.403534 
	C407.245239,486.114197 376.798920,526.783142 346.314301,567.423218 
	C338.150543,578.306641 329.052094,582.062317 319.384338,577.612488 
	C315.053802,575.619202 310.913818,572.105286 308.016235,568.275879 
	C277.160889,527.498657 246.552399,486.534485 215.956070,445.561920 
	C213.889984,442.795074 212.086441,439.696564 210.826736,436.490662 
	C207.984573,429.257507 211.247101,422.725372 218.822296,421.229736 
	C224.154358,420.176971 229.727219,420.156403 235.200027,420.046600 
	C244.018387,419.869568 252.842880,419.999023 261.727570,419.999023 
	C284.765930,342.135437 331.977478,284.748901 406.088074,251.391449 
	C464.540314,225.081863 525.272949,221.868042 586.466736,241.203568 
	C708.018250,279.610443 782.830200,401.023438 761.713013,526.981567 
	C740.119934,655.778259 627.884155,741.319763 509.911407,740.581482 
	C509.911407,697.880737 509.911407,655.173767 509.911407,612.043945 
	C553.259338,610.362732 588.695312,592.669434 613.542847,556.709717 
	C638.336426,520.828125 642.505981,481.681580 627.897583,440.184875 
z"/>
<path fill="#FCFBFF" opacity="1.000000" stroke="none" 
	d="
M441.169922,676.994385 
	C436.167206,677.037842 434.054169,674.661072 434.053955,670.196777 
	C434.053436,658.042480 434.085327,645.888062 434.028748,633.734009 
	C434.009491,629.599365 436.362854,627.244690 439.814911,625.861511 
	C447.737152,622.687134 455.785553,622.561462 463.578400,626.104004 
	C471.603882,629.752380 475.124207,638.978455 473.021179,649.678101 
	C471.363220,658.113403 465.101257,663.491150 456.204529,663.992310 
	C453.578033,664.140320 450.936127,664.015137 447.521027,664.015137 
	C447.521027,666.166809 447.297577,668.451660 447.567535,670.676697 
	C448.131775,675.327637 446.528137,677.669189 441.169922,676.994385 
M448.368805,634.935791 
	C448.025635,639.781799 447.771759,644.636292 447.308319,649.470764 
	C446.991333,652.777283 449.151642,653.922180 451.503479,653.408386 
	C454.017365,652.859192 457.186676,651.657349 458.427124,649.699524 
	C460.942444,645.729736 460.670715,640.996582 458.009125,636.979675 
	C455.926056,633.835815 452.597565,633.497437 448.368805,634.935791 
z"/>
<path fill="#FAF8FF" opacity="1.000000" stroke="none" 
	d="
M436.298737,689.188232 
	C442.817657,691.864929 439.699188,697.712219 441.108704,701.808594 
	C444.606903,701.808594 448.047607,701.574707 451.445679,701.855652 
	C459.319702,702.506592 464.313049,707.052979 464.725800,714.786621 
	C465.185333,723.396423 464.831085,732.049622 464.831085,740.938599 
	C462.862030,741.196899 461.070740,741.595947 459.271149,741.637451 
	C453.624268,741.767822 451.749603,740.067871 451.546143,734.355713 
	C451.350800,728.871399 451.495636,723.375916 451.385712,717.887390 
	C451.303467,713.781006 449.110077,711.856262 444.990784,712.111572 
	C442.054047,712.293640 440.597687,713.444763 440.684113,716.758911 
	C440.883484,724.406128 440.708252,732.063232 440.664185,739.716309 
	C440.662415,740.021729 440.448212,740.325989 440.199158,740.984924 
	C438.411896,741.198486 436.456909,741.584045 434.493042,741.636292 
	C429.912354,741.758362 427.199127,739.644287 427.185852,734.846069 
	C427.146667,720.703308 427.088135,706.559326 427.296143,692.419617 
	C427.312683,691.295227 429.140991,689.669373 430.449219,689.225586 
	C432.087738,688.669800 434.059265,689.095886 436.298737,689.188232 
z"/>
<path fill="#FCFBFF" opacity="1.000000" stroke="none" 
	d="
M365.904541,664.121826 
	C349.736877,663.627075 341.232971,652.682922 344.999786,637.825317 
	C347.413330,628.305481 355.645538,622.984741 366.771332,623.753662 
	C377.034485,624.462891 384.108337,630.993164 385.141357,640.712036 
	C386.607178,654.502625 379.674561,663.134705 365.904541,664.121826 
M360.006134,651.332947 
	C364.661499,654.724854 369.201477,654.303528 370.431030,649.699524 
	C371.403290,646.058899 371.220764,641.817261 370.369568,638.114075 
	C369.982697,636.431030 366.731720,634.361267 364.792999,634.374573 
	C362.859680,634.387756 359.552429,636.564636 359.292328,638.185242 
	C358.642487,642.233887 359.379486,646.505066 360.006134,651.332947 
z"/>
<path fill="#FCFBFF" opacity="1.000000" stroke="none" 
	d="
M399.051819,662.169678 
	C389.830994,656.787659 386.337738,647.991394 389.030273,637.670044 
	C391.293121,628.995789 398.508545,623.784912 408.467804,623.632385 
	C418.556976,623.477905 426.242920,628.564209 428.493164,637.516602 
	C430.447235,645.290649 429.916626,653.018799 423.676575,658.822083 
	C416.589905,665.412781 408.111328,665.378723 399.051819,662.169678 
M404.526276,651.903931 
	C410.320648,655.095337 414.259552,653.469910 415.272858,647.073792 
	C415.700134,644.376648 415.764343,641.188538 414.685730,638.818848 
	C413.766449,636.799255 411.007690,634.475586 408.999359,634.415955 
	C407.016113,634.356995 403.440125,636.772888 403.223572,638.447144 
	C402.681396,642.638733 403.646118,647.025269 404.526276,651.903931 
z"/>
<path fill="#FBFAFF" opacity="1.000000" stroke="none" 
	d="
M348.690552,713.873047 
	C352.806854,704.609985 359.426666,700.884033 369.633942,701.793030 
	C377.846283,702.524414 383.722748,707.302612 385.460205,714.661621 
	C386.819855,720.420471 385.145233,723.156250 379.355377,724.192200 
	C373.380554,725.261292 367.370758,726.135071 361.187714,727.124390 
	C364.533234,732.120728 369.295990,733.367126 376.378937,731.383728 
	C379.257477,730.577637 382.617950,728.227051 383.894501,733.221252 
	C385.000488,737.548096 382.338196,739.824463 378.644196,740.888855 
	C367.814667,744.009216 352.298981,742.386353 348.697205,728.427551 
	C347.550201,723.982361 348.543152,718.984985 348.690552,713.873047 
M368.126190,711.447021 
	C363.826813,711.380066 360.748016,712.858765 360.027954,718.173218 
	C364.535553,717.410706 368.711914,716.704224 374.538300,715.718628 
	C371.848541,713.782104 370.353424,712.705688 368.126190,711.447021 
z"/>
<path fill="#FCFBFF" opacity="1.000000" stroke="none" 
	d="
M305.892212,703.326904 
	C303.653168,694.953796 305.142487,693.005493 313.283478,692.997986 
	C322.256348,692.989685 331.235291,693.188110 340.199310,692.906494 
	C344.053711,692.785339 345.174774,694.478760 345.295135,697.810669 
	C345.425934,701.432068 344.449127,704.108154 340.219482,704.188232 
	C337.605164,704.237793 334.989166,704.197449 331.855530,704.197449 
	C331.855530,716.640503 331.855530,728.521301 331.855530,740.759888 
	C329.414368,740.962158 327.472839,741.255676 325.530884,741.258972 
	C319.776825,741.268738 318.064453,739.643127 318.015259,733.888123 
	C317.932953,724.258362 317.992767,714.627380 317.992767,704.640137 
	C313.904785,704.318542 310.020020,704.012939 305.892212,703.326904 
z"/>
<path fill="#FBFAFF" opacity="1.000000" stroke="none" 
	d="
M308.266846,623.132385 
	C308.266846,620.335999 308.266846,618.018616 308.266846,615.245422 
	C310.459290,614.982910 312.378174,614.603821 314.306152,614.550110 
	C320.237457,614.384888 322.019287,616.116333 322.090607,622.183838 
	C322.204132,631.842468 322.218231,641.502319 322.290039,651.161499 
	C322.290955,651.286987 322.497681,651.410828 323.071136,652.056702 
	C327.381378,652.056702 332.183990,652.301392 336.948547,651.980652 
	C340.890472,651.715271 341.379456,654.222595 341.590332,656.937927 
	C341.808136,659.742126 341.210876,662.812988 337.817780,662.933777 
	C329.835510,663.218079 321.808014,663.361816 313.851135,662.809021 
	C309.018860,662.473206 308.321198,658.120422 308.293793,654.105469 
	C308.224457,643.941223 308.268341,633.776184 308.266846,623.132385 
z"/>
<path fill="#FBFAFF" opacity="1.000000" stroke="none" 
	d="
M404.243866,702.124451 
	C408.572754,702.278625 412.639893,701.990845 416.386688,702.951965 
	C418.319855,703.447815 420.471252,705.905151 421.136353,707.931641 
	C422.417694,711.835815 419.998352,713.719360 415.701508,712.751831 
	C406.562683,710.694275 400.440735,716.636719 402.896271,725.181580 
	C404.288177,730.025208 408.734955,732.385620 414.927673,731.035828 
	C418.162415,730.330811 420.932739,729.834106 421.815796,733.900757 
	C422.699005,737.968079 420.349579,740.018921 416.789490,741.244812 
	C406.024292,744.951965 393.199921,739.012390 389.813232,728.691589 
	C385.884033,716.717651 391.417419,706.274109 404.243866,702.124451 
z"/>
<path fill="#6421EC" opacity="1.000000" stroke="none" 
	d="
M448.744873,634.754089 
	C452.597565,633.497437 455.926056,633.835815 458.009125,636.979675 
	C460.670715,640.996582 460.942444,645.729736 458.427124,649.699524 
	C457.186676,651.657349 454.017365,652.859192 451.503479,653.408386 
	C449.151642,653.922180 446.991333,652.777283 447.308319,649.470764 
	C447.771759,644.636292 448.025635,639.781799 448.744873,634.754089 
z"/>
<path fill="#6421EC" opacity="1.000000" stroke="none" 
	d="
M359.783051,651.009949 
	C359.379486,646.505066 358.642487,642.233887 359.292328,638.185242 
	C359.552429,636.564636 362.859680,634.387756 364.792999,634.374573 
	C366.731720,634.361267 369.982697,636.431030 370.369568,638.114075 
	C371.220764,641.817261 371.403290,646.058899 370.431030,649.699524 
	C369.201477,654.303528 364.661499,654.724854 359.783051,651.009949 
z"/>
<path fill="#6421EC" opacity="1.000000" stroke="none" 
	d="
M404.266296,651.618774 
	C403.646118,647.025269 402.681396,642.638733 403.223572,638.447144 
	C403.440125,636.772888 407.016113,634.356995 408.999359,634.415955 
	C411.007690,634.475586 413.766449,636.799255 414.685730,638.818848 
	C415.764343,641.188538 415.700134,644.376648 415.272858,647.073792 
	C414.259552,653.469910 410.320648,655.095337 404.266296,651.618774 
z"/>
<path fill="#6421EC" opacity="1.000000" stroke="none" 
	d="
M368.492249,711.538086 
	C370.353424,712.705688 371.848541,713.782104 374.538300,715.718628 
	C368.711914,716.704224 364.535553,717.410706 360.027954,718.173218 
	C360.748016,712.858765 363.826813,711.380066 368.492249,711.538086 
z"/>
</svg>