<svg xmlns="http://www.w3.org/2000/svg" xmlns:xlink="http://www.w3.org/1999/xlink" width="500" zoomAndPan="magnify" viewBox="0 0 375 374.999991" height="500" preserveAspectRatio="xMidYMid meet" version="1.0"><defs><clipPath id="564ff3d2ad"><path d="M 42.703125 37.5 L 327 37.5 L 327 343.5 L 42.703125 343.5 Z M 42.703125 37.5 " clip-rule="nonzero"/></clipPath></defs><g clip-path="url(#564ff3d2ad)"><path fill="#c1ff72" d="M 204.667969 302.492188 C 201.707031 302.730469 198.710938 302.84375 195.683594 302.84375 C 151.574219 302.84375 113.414062 277.402344 95.0625 240.394531 C 95.027344 240.480469 132.308594 154.234375 217.726562 116.921875 C 173.722656 128.066406 144.132812 143.523438 124.230469 158.953125 L 124.238281 158.945312 L 124.113281 159.050781 C 119.175781 162.886719 114.835938 166.710938 111.027344 170.472656 C 102.535156 178.132812 91.648438 188.460938 83.679688 197.769531 C 83.527344 195.410156 83.460938 193.03125 83.460938 190.632812 C 83.460938 128.648438 133.710938 78.410156 195.691406 78.410156 C 225.875 78.410156 253.269531 90.324219 273.449219 109.707031 C 236.128906 202.089844 129.804688 233.605469 129.804688 233.605469 C 231.632812 224.382812 277.425781 180.445312 297.976562 144.363281 C 313.484375 117.128906 314.617188 94.371094 314.617188 94.371094 C 286.574219 59.761719 243.714844 37.632812 195.691406 37.632812 C 111.199219 37.632812 42.703125 106.125 42.703125 190.621094 C 42.703125 275.117188 111.199219 343.609375 195.691406 343.609375 C 220.375 343.609375 243.695312 337.765625 264.332031 327.382812 C 278.390625 320.308594 291.199219 311.132812 302.367188 300.273438 C 337.449219 263.007812 324.097656 220.777344 324.097656 220.777344 C 283.898438 303.96875 204.667969 302.492188 204.667969 302.492188 " fill-opacity="1" fill-rule="evenodd"/></g></svg>